<mxfile host="app.diagrams.net" modified="2023-11-19T19:56:51.910Z" agent="Mozilla/5.0 (Windows NT 10.0; Win64; x64) AppleWebKit/537.36 (KHTML, like Gecko) Chrome/119.0.0.0 Safari/537.36 Edg/119.0.0.0" etag="2BsnyoKLLUO57DnInH2O" version="22.1.3" type="device">
  <diagram name="Seite-1" id="IRMZENF06gAAnBfSWrUN">
    <mxGraphModel dx="1426" dy="797" grid="1" gridSize="10" guides="1" tooltips="1" connect="1" arrows="1" fold="1" page="1" pageScale="1" pageWidth="827" pageHeight="1169" math="0" shadow="0">
      <root>
        <mxCell id="0" />
        <mxCell id="1" parent="0" />
        <mxCell id="cYdGsS3lGn15Iha0b1hu-13" style="edgeStyle=orthogonalEdgeStyle;rounded=0;orthogonalLoop=1;jettySize=auto;html=1;" edge="1" parent="1" source="cYdGsS3lGn15Iha0b1hu-1" target="cYdGsS3lGn15Iha0b1hu-4">
          <mxGeometry relative="1" as="geometry" />
        </mxCell>
        <mxCell id="cYdGsS3lGn15Iha0b1hu-14" style="edgeStyle=orthogonalEdgeStyle;rounded=0;orthogonalLoop=1;jettySize=auto;html=1;" edge="1" parent="1" source="cYdGsS3lGn15Iha0b1hu-1" target="cYdGsS3lGn15Iha0b1hu-5">
          <mxGeometry relative="1" as="geometry" />
        </mxCell>
        <mxCell id="cYdGsS3lGn15Iha0b1hu-15" style="edgeStyle=orthogonalEdgeStyle;rounded=0;orthogonalLoop=1;jettySize=auto;html=1;entryX=0;entryY=0.5;entryDx=0;entryDy=0;" edge="1" parent="1" source="cYdGsS3lGn15Iha0b1hu-1" target="cYdGsS3lGn15Iha0b1hu-6">
          <mxGeometry relative="1" as="geometry" />
        </mxCell>
        <mxCell id="cYdGsS3lGn15Iha0b1hu-16" style="edgeStyle=orthogonalEdgeStyle;rounded=0;orthogonalLoop=1;jettySize=auto;html=1;entryX=0;entryY=0.5;entryDx=0;entryDy=0;" edge="1" parent="1" source="cYdGsS3lGn15Iha0b1hu-1" target="cYdGsS3lGn15Iha0b1hu-7">
          <mxGeometry relative="1" as="geometry" />
        </mxCell>
        <mxCell id="cYdGsS3lGn15Iha0b1hu-1" value="Input 1" style="ellipse;whiteSpace=wrap;html=1;aspect=fixed;" vertex="1" parent="1">
          <mxGeometry x="80" y="160" width="80" height="80" as="geometry" />
        </mxCell>
        <mxCell id="cYdGsS3lGn15Iha0b1hu-24" style="edgeStyle=orthogonalEdgeStyle;rounded=0;orthogonalLoop=1;jettySize=auto;html=1;entryX=0;entryY=0.5;entryDx=0;entryDy=0;" edge="1" parent="1" source="cYdGsS3lGn15Iha0b1hu-2" target="cYdGsS3lGn15Iha0b1hu-5">
          <mxGeometry relative="1" as="geometry" />
        </mxCell>
        <mxCell id="cYdGsS3lGn15Iha0b1hu-2" value="Input 2" style="ellipse;whiteSpace=wrap;html=1;aspect=fixed;" vertex="1" parent="1">
          <mxGeometry x="80" y="280" width="80" height="80" as="geometry" />
        </mxCell>
        <mxCell id="cYdGsS3lGn15Iha0b1hu-25" style="edgeStyle=orthogonalEdgeStyle;rounded=0;orthogonalLoop=1;jettySize=auto;html=1;entryX=0;entryY=0.5;entryDx=0;entryDy=0;" edge="1" parent="1" source="cYdGsS3lGn15Iha0b1hu-3" target="cYdGsS3lGn15Iha0b1hu-6">
          <mxGeometry relative="1" as="geometry" />
        </mxCell>
        <mxCell id="cYdGsS3lGn15Iha0b1hu-3" value="Input 3" style="ellipse;whiteSpace=wrap;html=1;aspect=fixed;" vertex="1" parent="1">
          <mxGeometry x="80" y="400" width="80" height="80" as="geometry" />
        </mxCell>
        <mxCell id="cYdGsS3lGn15Iha0b1hu-17" style="edgeStyle=orthogonalEdgeStyle;rounded=0;orthogonalLoop=1;jettySize=auto;html=1;entryX=0;entryY=0.5;entryDx=0;entryDy=0;" edge="1" parent="1" source="cYdGsS3lGn15Iha0b1hu-4" target="cYdGsS3lGn15Iha0b1hu-8">
          <mxGeometry relative="1" as="geometry" />
        </mxCell>
        <mxCell id="cYdGsS3lGn15Iha0b1hu-18" style="edgeStyle=orthogonalEdgeStyle;rounded=0;orthogonalLoop=1;jettySize=auto;html=1;entryX=0;entryY=0.5;entryDx=0;entryDy=0;" edge="1" parent="1" source="cYdGsS3lGn15Iha0b1hu-4" target="cYdGsS3lGn15Iha0b1hu-9">
          <mxGeometry relative="1" as="geometry" />
        </mxCell>
        <mxCell id="cYdGsS3lGn15Iha0b1hu-19" style="edgeStyle=orthogonalEdgeStyle;rounded=0;orthogonalLoop=1;jettySize=auto;html=1;entryX=0;entryY=0.5;entryDx=0;entryDy=0;" edge="1" parent="1" source="cYdGsS3lGn15Iha0b1hu-4" target="cYdGsS3lGn15Iha0b1hu-10">
          <mxGeometry relative="1" as="geometry" />
        </mxCell>
        <mxCell id="cYdGsS3lGn15Iha0b1hu-20" style="edgeStyle=orthogonalEdgeStyle;rounded=0;orthogonalLoop=1;jettySize=auto;html=1;entryX=0;entryY=0.5;entryDx=0;entryDy=0;" edge="1" parent="1" source="cYdGsS3lGn15Iha0b1hu-4" target="cYdGsS3lGn15Iha0b1hu-11">
          <mxGeometry relative="1" as="geometry" />
        </mxCell>
        <mxCell id="cYdGsS3lGn15Iha0b1hu-4" value="Neuron" style="ellipse;whiteSpace=wrap;html=1;aspect=fixed;" vertex="1" parent="1">
          <mxGeometry x="280" y="100" width="80" height="80" as="geometry" />
        </mxCell>
        <mxCell id="cYdGsS3lGn15Iha0b1hu-21" style="edgeStyle=orthogonalEdgeStyle;rounded=0;orthogonalLoop=1;jettySize=auto;html=1;" edge="1" parent="1" source="cYdGsS3lGn15Iha0b1hu-5" target="cYdGsS3lGn15Iha0b1hu-9">
          <mxGeometry relative="1" as="geometry" />
        </mxCell>
        <mxCell id="cYdGsS3lGn15Iha0b1hu-5" value="Neuron" style="ellipse;whiteSpace=wrap;html=1;aspect=fixed;" vertex="1" parent="1">
          <mxGeometry x="280" y="220" width="80" height="80" as="geometry" />
        </mxCell>
        <mxCell id="cYdGsS3lGn15Iha0b1hu-22" style="edgeStyle=orthogonalEdgeStyle;rounded=0;orthogonalLoop=1;jettySize=auto;html=1;entryX=0;entryY=0.5;entryDx=0;entryDy=0;" edge="1" parent="1" source="cYdGsS3lGn15Iha0b1hu-6" target="cYdGsS3lGn15Iha0b1hu-10">
          <mxGeometry relative="1" as="geometry" />
        </mxCell>
        <mxCell id="cYdGsS3lGn15Iha0b1hu-6" value="Neuron" style="ellipse;whiteSpace=wrap;html=1;aspect=fixed;" vertex="1" parent="1">
          <mxGeometry x="280" y="340" width="80" height="80" as="geometry" />
        </mxCell>
        <mxCell id="cYdGsS3lGn15Iha0b1hu-23" style="edgeStyle=orthogonalEdgeStyle;rounded=0;orthogonalLoop=1;jettySize=auto;html=1;entryX=0;entryY=0.5;entryDx=0;entryDy=0;" edge="1" parent="1" source="cYdGsS3lGn15Iha0b1hu-7" target="cYdGsS3lGn15Iha0b1hu-11">
          <mxGeometry relative="1" as="geometry" />
        </mxCell>
        <mxCell id="cYdGsS3lGn15Iha0b1hu-7" value="Neuron" style="ellipse;whiteSpace=wrap;html=1;aspect=fixed;" vertex="1" parent="1">
          <mxGeometry x="280" y="460" width="80" height="80" as="geometry" />
        </mxCell>
        <mxCell id="cYdGsS3lGn15Iha0b1hu-26" style="edgeStyle=orthogonalEdgeStyle;rounded=0;orthogonalLoop=1;jettySize=auto;html=1;entryX=0;entryY=0.5;entryDx=0;entryDy=0;" edge="1" parent="1" source="cYdGsS3lGn15Iha0b1hu-8" target="cYdGsS3lGn15Iha0b1hu-12">
          <mxGeometry relative="1" as="geometry" />
        </mxCell>
        <mxCell id="cYdGsS3lGn15Iha0b1hu-8" value="Neuron" style="ellipse;whiteSpace=wrap;html=1;aspect=fixed;" vertex="1" parent="1">
          <mxGeometry x="480" y="100" width="80" height="80" as="geometry" />
        </mxCell>
        <mxCell id="cYdGsS3lGn15Iha0b1hu-27" style="edgeStyle=orthogonalEdgeStyle;rounded=0;orthogonalLoop=1;jettySize=auto;html=1;" edge="1" parent="1" source="cYdGsS3lGn15Iha0b1hu-9" target="cYdGsS3lGn15Iha0b1hu-12">
          <mxGeometry relative="1" as="geometry" />
        </mxCell>
        <mxCell id="cYdGsS3lGn15Iha0b1hu-9" value="Neuron" style="ellipse;whiteSpace=wrap;html=1;aspect=fixed;" vertex="1" parent="1">
          <mxGeometry x="480" y="220" width="80" height="80" as="geometry" />
        </mxCell>
        <mxCell id="cYdGsS3lGn15Iha0b1hu-29" style="edgeStyle=orthogonalEdgeStyle;rounded=0;orthogonalLoop=1;jettySize=auto;html=1;" edge="1" parent="1" source="cYdGsS3lGn15Iha0b1hu-10" target="cYdGsS3lGn15Iha0b1hu-12">
          <mxGeometry relative="1" as="geometry" />
        </mxCell>
        <mxCell id="cYdGsS3lGn15Iha0b1hu-10" value="Neuron" style="ellipse;whiteSpace=wrap;html=1;aspect=fixed;" vertex="1" parent="1">
          <mxGeometry x="480" y="340" width="80" height="80" as="geometry" />
        </mxCell>
        <mxCell id="cYdGsS3lGn15Iha0b1hu-31" style="edgeStyle=orthogonalEdgeStyle;rounded=0;orthogonalLoop=1;jettySize=auto;html=1;entryX=0;entryY=0.5;entryDx=0;entryDy=0;" edge="1" parent="1" source="cYdGsS3lGn15Iha0b1hu-11" target="cYdGsS3lGn15Iha0b1hu-12">
          <mxGeometry relative="1" as="geometry" />
        </mxCell>
        <mxCell id="cYdGsS3lGn15Iha0b1hu-11" value="Neuron" style="ellipse;whiteSpace=wrap;html=1;aspect=fixed;" vertex="1" parent="1">
          <mxGeometry x="480" y="460" width="80" height="80" as="geometry" />
        </mxCell>
        <mxCell id="cYdGsS3lGn15Iha0b1hu-12" value="Output" style="ellipse;whiteSpace=wrap;html=1;aspect=fixed;" vertex="1" parent="1">
          <mxGeometry x="680" y="280" width="80" height="80" as="geometry" />
        </mxCell>
      </root>
    </mxGraphModel>
  </diagram>
</mxfile>
